<svg width="1200" height="800" viewBox="0 0 1200 800" fill="none" xmlns="http://www.w3.org/2000/svg">
  <rect width="1200" height="800" fill="#0A0A0A"/>
  <rect x="58" y="58" width="1084" height="684" rx="34" fill="#121212" stroke="#373737"/>
  <rect x="104" y="104" width="160" height="580" rx="24" fill="#171717" stroke="#3A3A3A"/>
  <rect x="284" y="104" width="858" height="260" rx="24" fill="#171717" stroke="#3A3A3A"/>
  <rect x="284" y="384" width="858" height="300" rx="24" fill="#171717" stroke="#3A3A3A"/>
  <path d="M130 164h68" stroke="#D4D4D4" stroke-width="8" stroke-linecap="round"/>
  <path d="M130 260h68" stroke="#595959" stroke-width="6" stroke-linecap="round"/>
  <path d="M130 340h68" stroke="#595959" stroke-width="6" stroke-linecap="round"/>
  <path d="M324 150h340" stroke="#D4D4D4" stroke-width="8" stroke-linecap="round"/>
  <rect x="324" y="210" width="240" height="104" rx="16" fill="#101010" stroke="#2E2E2E"/>
  <rect x="584" y="210" width="240" height="104" rx="16" fill="#101010" stroke="#2E2E2E"/>
  <rect x="844" y="210" width="240" height="104" rx="16" fill="#101010" stroke="#2E2E2E"/>
  <path d="M324 462h340" stroke="#D4D4D4" stroke-width="8" stroke-linecap="round"/>
  <path d="M324 520h600" stroke="#595959" stroke-width="6" stroke-linecap="round"/>
  <path d="M324 570h500" stroke="#595959" stroke-width="6" stroke-linecap="round"/>
</svg>